<?xml version="1.0" encoding="UTF-8" standalone="no"?>
<!--
  SPDX-FileCopyrightText: Material Design Authors / Google LLC
  SPDX-FileCopyrightText: 2021 The Calyx Institute
  SPDX-License-Identifier: Apache-2.0
  -->
<svg xmlns:dc="http://purl.org/dc/elements/1.1/" xmlns:cc="http://creativecommons.org/ns#"
    xmlns:rdf="http://www.w3.org/1999/02/22-rdf-syntax-ns#" xmlns="http://www.w3.org/2000/svg"
    xmlns:sodipodi="http://sodipodi.sourceforge.net/DTD/sodipodi-0.dtd"
    xmlns:inkscape="http://www.inkscape.org/namespaces/inkscape" height="24" viewBox="0 0 24 24"
    width="24" version="1.1" id="svg6" sodipodi:docname="cloud-24px.svg"
    inkscape:version="1.0.1 (3bc2e813f5, 2020-09-07)">
    <metadata id="metadata12">
        <rdf:RDF>
            <cc:Work rdf:about="">
                <dc:format>image/svg+xml</dc:format>
                <dc:type rdf:resource="http://purl.org/dc/dcmitype/StillImage" />
            </cc:Work>
        </rdf:RDF>
    </metadata>
    <defs id="defs10" />
    <sodipodi:namedview pagecolor="#ffffff" bordercolor="#666666" borderopacity="1"
        objecttolerance="10" gridtolerance="10" guidetolerance="10" inkscape:pageopacity="0"
        inkscape:pageshadow="2" inkscape:window-width="1920" inkscape:window-height="958"
        id="namedview8" showgrid="false" inkscape:zoom="13.007819" inkscape:cx="14.342117"
        inkscape:cy="11.405653" inkscape:window-x="1920" inkscape:window-y="96"
        inkscape:window-maximized="0" inkscape:current-layer="svg6" />
    <path d="M0 0h24v24H0z" fill="none" id="path2" />
    <path id="path4"
        d="M 12 4 C 9.11 4 6.5996094 5.6390625 5.3496094 8.0390625 C 2.3396094 8.3590625 -1.1842379e-15 10.91 0 14 C 0 17.31 2.69 20 6 20 L 19 20 C 21.76 20 24 17.76 24 15 C 24 12.36 21.949609 10.219062 19.349609 10.039062 C 18.669609 6.5890625 15.64 4 12 4 z M 12.175781 8.1230469 C 14.93578 8.1230469 17.175781 10.363047 17.175781 13.123047 C 17.175781 15.883047 14.93578 18.123047 12.175781 18.123047 C 10.125781 18.123047 8.365703 16.883047 7.5957031 15.123047 L 9.3066406 15.123047 C 9.9366406 16.023047 10.985781 16.623047 12.175781 16.623047 C 14.105781 16.623047 15.675781 15.053047 15.675781 13.123047 C 15.675781 11.193047 14.105781 9.6230469 12.175781 9.6230469 C 10.825781 9.6230469 9.6561719 10.401484 9.0761719 11.521484 L 10.675781 13.123047 L 6.6757812 13.123047 L 6.6757812 9.1230469 L 7.9765625 10.421875 C 8.8665625 9.0418743 10.405781 8.1230469 12.175781 8.1230469 z " />
</svg>
