<?xml version="1.0" encoding="UTF-8" standalone="no"?>
<!--
  SPDX-FileCopyrightText: Material Design Authors / Google LLC
  SPDX-FileCopyrightText: 2021 The Calyx Institute
  SPDX-License-Identifier: Apache-2.0
  -->
<svg xmlns:dc="http://purl.org/dc/elements/1.1/" xmlns:cc="http://creativecommons.org/ns#"
    xmlns:rdf="http://www.w3.org/1999/02/22-rdf-syntax-ns#" xmlns="http://www.w3.org/2000/svg"
    xmlns:sodipodi="http://sodipodi.sourceforge.net/DTD/sodipodi-0.dtd"
    xmlns:inkscape="http://www.inkscape.org/namespaces/inkscape" version="1.1" width="24"
    height="24" viewBox="0 0 24 24" id="svg4" sodipodi:docname="image-multiple.svg"
    inkscape:version="1.0.1 (3bc2e813f5, 2020-09-07)">
    <metadata id="metadata10">
        <rdf:RDF>
            <cc:Work rdf:about="">
                <dc:format>image/svg+xml</dc:format>
                <dc:type rdf:resource="http://purl.org/dc/dcmitype/StillImage" />
            </cc:Work>
        </rdf:RDF>
    </metadata>
    <defs id="defs8" />
    <sodipodi:namedview pagecolor="#ffffff" bordercolor="#666666" borderopacity="1"
        objecttolerance="10" gridtolerance="10" guidetolerance="10" inkscape:pageopacity="0"
        inkscape:pageshadow="2" inkscape:window-width="1920" inkscape:window-height="958"
        id="namedview6" showgrid="false" inkscape:zoom="13.007819" inkscape:cx="8.8546913"
        inkscape:cy="7.0282265" inkscape:window-x="1920" inkscape:window-y="96"
        inkscape:window-maximized="0" inkscape:current-layer="svg4" />
    <path id="path1490"
        d="M 2 6 L 2 20 C 2 21.104569 2.8954305 22 4 22 L 18 22 L 18 20 L 4 20 L 4 6 L 2 6 z " />
    <path id="path1486"
        d="M 8 2 C 6.8954305 2 6 2.8954305 6 4 L 6 16 C 6 17.104569 6.8954305 18 8 18 L 20 18 C 21.104569 18 22 17.104569 22 16 L 22 4 C 22 2.8954305 21.104569 2 20 2 L 8 2 z M 12.5 5 L 15.5 5 L 15.5 8 L 18 8 L 14 12 L 10 8 L 12.5 8 L 12.5 5 z M 10 13 L 18 13 L 18 15 L 10 15 L 10 13 z " />
</svg>
